nColumns=19
nRows=66
DataType=double
version=3
OpenSimVersion=4.1
endheader
time	ground_force_1_vx	ground_force_1_vy	ground_force_1_vz	ground_force_1_px	ground_force_1_py	ground_force_1_pz	ground_force_1_mx	ground_force_1_my	ground_force_1_mz	ground_force_2_vx	ground_force_2_vy	ground_force_2_vz	ground_force_2_px	ground_force_2_py	ground_force_2_pz	ground_force_2_mx	ground_force_2_my	ground_force_2_mz
0	-81.5542	403.115	-4.76992	0.067452	0.006	-0.16794	0	0.584991	0	0	0	0	0.703431	0	-0.248801	0	0	0
0.01	-91.4241	437.361	-7.19141	0.071611	0.006	-0.167387	0	0.616991	0	0	0	0	0.703431	0	-0.248801	0	0	0
0.02	-101.095	472.65	-10.0361	0.076358	0.006	-0.166693	0	0.654766	0	0	0	0	0.703431	0	-0.248801	0	0	0
0.03	-109.994	507.297	-13.2733	0.080888	0.006	-0.165959	0	0.696106	0	0	0	0	0.703431	0	-0.248801	0	0	0
0.04	-117.573	539.659	-16.8347	0.085164	0.006	-0.165189	0	0.738846	0	0	0	0	0.703431	0	-0.248801	0	0	0
0.05	-123.416	568.392	-20.6119	0.089183	0.006	-0.164387	0	0.781923	0	0	0	0	0.703431	0	-0.248801	0	0	0
0.06	-127.287	592.585	-24.4604	0.092959	0.006	-0.163562	0	0.825667	0	0	0	0	0.703431	0	-0.248801	0	0	0
0.07	-129.131	611.758	-28.2074	0.096522	0.006	-0.162723	0	0.871735	0	0	0	0	0.703431	0	-0.248801	0	0	0
0.08	-129.026	625.753	-31.6652	0.099898	0.006	-0.161882	0	0.922325	0	0	0	0	0.703431	0	-0.248801	0	0	0
0.09	-127.131	634.626	-34.6555	0.103114	0.006	-0.161052	0	0.978528	0	0	0	0	0.703431	0	-0.248801	0	0	0
0.1	-123.648	638.583	-37.036	0.106195	0.006	-0.160243	0	1.03891	0	0	0	0	0.703431	0	-0.248801	0	0	0
0.11	-118.803	637.953	-38.7217	0.109159	0.006	-0.159461	0	1.09906	0	0	0	0	0.703431	0	-0.248801	0	0	0
0.12	-112.836	633.164	-39.6892	0.112028	0.006	-0.158706	0	1.15244	0	0	0	0	0.703431	0	-0.248801	0	0	0
0.13	-106	624.73	-39.9708	0.114825	0.006	-0.157974	0	1.19168	0	0	0	0	0.703431	0	-0.248801	0	0	0
0.14	-98.5497	613.236	-39.6425	0.117575	0.006	-0.157256	0	1.20983	0	0	0	0	0.703431	0	-0.248801	0	0	0
0.15	-90.7386	599.318	-38.8081	0.120311	0.006	-0.156541	0	1.20145	0	0	0	0	0.703431	0	-0.248801	0	0	0
0.16	-82.803	583.645	-37.5864	0.123069	0.006	-0.155816	0	1.16311	0	0	0	0	0.703431	0	-0.248801	0	0	0
0.17	-74.9553	566.893	-36.0991	0.125888	0.006	-0.155067	0	1.09375	0	0	0	0	0.703431	0	-0.248801	0	0	0
0.18	-67.3768	549.724	-34.4612	0.128809	0.006	-0.154282	0	0.99454	0	0	0	0	0.703431	0	-0.248801	0	0	0
0.19	-60.2117	532.753	-32.7752	0.13187	0.006	-0.153451	0	0.868486	0	0	0	0	0.703431	0	-0.248801	0	0	0
0.2	-53.5638	516.535	-31.1272	0.1351	0.006	-0.152569	0	0.719658	0	0	0	0	0.703431	0	-0.248801	0	0	0
0.21	-47.4982	501.54	-29.5858	0.138517	0.006	-0.151635	0	0.552542	0	0	0	0	0.703431	0	-0.248801	0	0	0
0.22	-42.0434	488.138	-28.2003	0.142125	0.006	-0.150652	0	0.371712	0	0	0	0	0.703431	0	-0.248801	0	0	0
0.23	-37.1966	476.603	-27.0006	0.14591	0.006	-0.14963	0	0.181681	0	0	0	0	0.703431	0	-0.248801	0	0	0
0.24	-32.9306	467.115	-25.9961	0.149847	0.006	-0.148586	0	-0.013439	0	0	0	0	0.703431	0	-0.248801	0	0	0
0.25	-29.1987	459.774	-25.1791	0.153896	0.006	-0.147539	0	-0.21028	0	0	0	0	0.703431	0	-0.248801	0	0	0
0.26	-25.9392	454.606	-24.5309	0.158004	0.006	-0.146513	0	-0.406379	0	0	0	0	0.703431	0	-0.248801	0	0	0
0.27	-23.0786	451.568	-24.0305	0.162115	0.006	-0.145528	0	-0.599941	0	0	0	0	0.703431	0	-0.248801	0	0	0
0.28	-20.5361	450.548	-23.6617	0.166171	0.006	-0.144604	0	-0.789392	0	0	0	0	0.703431	0	-0.248801	0	0	0
0.29	-18.2277	451.375	-23.4179	0.170121	0.006	-0.143752	0	-0.97303	0	0	0	0	0.703431	0	-0.248801	0	0	0
0.3	-16.0698	453.832	-23.3022	0.173921	0.006	-0.14298	0	-1.14882	0	0	0	0	0.703431	0	-0.248801	0	0	0
0.31	-13.9814	457.674	-23.3249	0.177541	0.006	-0.142288	0	-1.31408	0	0	0	0	0.703431	0	-0.248801	0	0	0
0.32	-11.8883	462.641	-23.5	0.180962	0.006	-0.141673	0	-1.46555	0	0	0	0	0.703431	0	-0.248801	0	0	0
0.33	-9.72722	468.473	-23.8403	0.184177	0.006	-0.14113	0	-1.59988	0	0	0	0	0.703431	0	-0.248801	0	0	0
0.34	-7.44735	474.924	-24.3521	0.187192	0.006	-0.140656	0	-1.71406	0	0	0	0	0.703431	0	-0.248801	0	0	0
0.35	-5.01156	481.77	-25.033	0.190021	0.006	-0.140247	0	-1.80587	0	0	0	0	0.703431	0	-0.248801	0	0	0
0.36	-2.39599	488.814	-25.8709	0.192684	0.006	-0.1399	0	-1.8741	0	0	0	0	0.703431	0	-0.248801	0	0	0
0.37	0.413097	495.894	-26.8454	0.195205	0.006	-0.139616	0	-1.91845	0	0	0	0	0.703431	0	-0.248801	0	0	0
0.38	3.42292	502.88	-27.9315	0.197607	0.006	-0.139393	0	-1.93952	0	0	0	0	0.703431	0	-0.248801	0	0	0
0.39	6.6376	509.676	-29.1014	0.199915	0.006	-0.139233	0	-1.93863	0	0	0	0	0.703431	0	-0.248801	0	0	0
0.4	10.0607	516.214	-30.3248	0.202149	0.006	-0.139135	0	-1.91792	0	0	0	0	0.703431	0	-0.248801	0	0	0
0.41	13.6966	522.448	-31.5691	0.204326	0.006	-0.139101	0	-1.88029	0	0	0	0	0.703431	0	-0.248801	0	0	0
0.42	17.5523	528.347	-32.7985	0.206461	0.006	-0.13913	0	-1.82926	0	0	0	0	0.703431	0	-0.248801	0	0	0
0.43	21.6373	533.879	-33.9764	0.208563	0.006	-0.139222	0	-1.76877	0	0	0	0	0.703431	0	-0.248801	0	0	0
0.44	25.9618	539.004	-35.0682	0.210641	0.006	-0.139376	0	-1.70291	0	0	0	0	0.703431	0	-0.248801	0	0	0
0.45	30.5328	543.666	-36.0434	0.212696	0.006	-0.139588	0	-1.63563	0	0	0	0	0.703431	0	-0.248801	0	0	0
0.46	35.3503	547.79	-36.8772	0.214729	0.006	-0.139852	0	-1.57042	0	0	0	0	0.703431	0	-0.248801	0	0	0
0.47	40.4044	551.277	-37.5518	0.21674	0.006	-0.140159	0	-1.50983	0	0	0	0	0.703431	0	-0.248801	0	0	0
0.48	45.6736	554.01	-38.0549	0.218728	0.006	-0.140501	0	-1.45513	0	0	0	0	0.703431	0	-0.248801	0	0	0
0.49	51.1239	555.849	-38.3773	0.220693	0.006	-0.140867	0	-1.40636	0	0	0	0	0.703431	0	-0.248801	0	0	0
0.5	56.7078	556.639	-38.5103	0.222633	0.006	-0.141248	0	-1.36263	0	0	0	0	0.703431	0	-0.248801	0	0	0
0.51	62.3627	556.209	-38.4426	0.224546	0.006	-0.141637	0	-1.32265	0	0	0	0	0.703431	0	-0.248801	0	0	0
0.52	68.0116	554.37	-38.1595	0.226431	0.006	-0.142027	0	-1.2852	0	0	0	0	0.703431	0	-0.248801	0	0	0
0.53	73.5643	550.911	-37.645	0.228288	0.006	-0.142412	0	-1.24902	0	0	0	0	0.703431	0	-0.248801	0	0	0
0.54	78.918	545.607	-36.8851	0.230116	0.006	-0.142785	0	-1.21264	0	0	0	0	0.703431	0	-0.248801	0	0	0
0.55	83.9603	538.214	-35.8684	0.231918	0.006	-0.143143	0	-1.17454	0	0	0	0	0.703431	0	-0.248801	0	0	0
0.56	88.5699	528.487	-34.5886	0.233696	0.006	-0.143481	0	-1.13347	0	0	0	0	0.703431	0	-0.248801	0	0	0
0.57	92.6164	516.186	-33.0449	0.235451	0.006	-0.143794	0	-1.08871	0	-6.25178	29.4177	-4.03114	0.720949	0.006	-0.259244	0	0.202877	0
0.58	95.9603	501.107	-31.2425	0.237187	0.006	-0.144079	0	-1.04021	0	-10.5695	51.7893	-4.27462	0.748071	0.006	-0.275027	0	0.303941	0
0.59	98.4546	483.09	-29.1921	0.23891	0.006	-0.144335	0	-0.988504	0	-16.0204	79.6144	-4.41699	0.761677	0.006	-0.282543	0	0.351927	0
0.6	99.9503	462.044	-26.9113	0.240629	0.006	-0.144559	0	-0.9345	0	-22.6765	113.122	-4.40437	0.7701	0.006	-0.2869	0	0.378287	0
0.61	100.306	437.959	-24.426	0.242352	0.006	-0.144751	0	-0.879255	0	-30.5504	152.212	-4.17173	0.776056	0.006	-0.289746	0	0.392269	0
0.62	99.3978	410.931	-21.7726	0.244092	0.006	-0.144912	0	-0.823717	0	-39.5844	196.347	-3.64773	0.780702	0.006	-0.291771	0	0.396828	0
0.63	97.1367	381.174	-18.9998	0.245865	0.006	-0.145042	0	-0.768427	0	-49.6398	244.531	-2.76229	0.784614	0.006	-0.293318	0	0.392874	0
0.64	93.4798	349.043	-16.1691	0.247687	0.006	-0.145141	0	-0.713304	0	-60.4322	295.415	-1.4477	0.788093	0.006	-0.294575	0	0.380465	0
0.65	88.446	315.035	-13.3544	0.249578	0.006	-0.14521	0	-0.657371	0	-71.5208	347.406	0.354126	0.791299	0.006	-0.295655	0	0.358829	0
